<svg width="400" height="173" viewBox="0 0 400 173" fill="none" xmlns="http://www.w3.org/2000/svg">
<path d="M4.96893 69.945V62.4952H237.267V38.4904L250.104 45.9402V62.4952H284.472V69.945H250.104C250.104 69.945 251.346 132.026 250.104 134.51C248.861 136.993 254.778 138.894 258.385 138.648C261.567 138.431 263.275 136.865 265.424 134.51C270.327 129.135 265.424 115.885 265.424 115.885L279.917 127.474C279.917 127.474 272.706 143.616 263.354 145.27C260.647 145.75 259.043 145.607 256.315 145.27C247.834 144.222 239.668 142.373 237.267 134.51C234.866 126.646 237.267 69.945 237.267 69.945H172.671V84.4306C172.671 84.4306 182.77 79.8774 189.626 79.878C201.133 79.8789 216.149 89.3971 216.149 92.7081V145.27L205.383 134.51C205.383 134.51 199.144 142.744 193.375 145.27C185.969 148.513 180.32 147.889 172.671 145.27C167.87 143.626 161.491 138.648 161.491 138.648C161.491 138.648 155.198 134.775 153.209 130.785C150.613 125.576 150.99 121.265 153.209 115.885C155.877 109.419 160.528 107.247 166.874 104.297C174.963 100.535 180.711 101.871 189.626 102.227C195.828 102.475 205.383 104.297 205.383 104.297C205.383 104.297 206.412 99.0835 205.383 96.0191C203.283 89.7646 197.281 88.9783 190.89 87.3277C179.298 84.3338 161.491 96.0191 161.491 96.0191V69.945H101.449V83.9936C101.641 82.8537 103.458 79.878 117.184 79.878C134.161 79.878 142.029 86.9139 142.029 92.7081V142.373L131.263 134.51C131.263 134.51 123.688 142.903 117.184 145.27C109.739 147.98 104.276 148.151 96.8944 145.27C92.5491 143.575 89.9486 142.225 86.9565 138.648C84.7296 135.986 83.8567 134.095 82.8157 130.785C81.0696 125.234 80.5834 121.259 82.8157 115.885C85.547 109.31 90.3685 107.148 96.8944 104.297C104.192 101.107 109.221 102.071 117.184 102.227C123.863 102.359 134.161 104.297 134.161 104.297C134.161 104.297 135.154 99.0959 134.161 96.0191C131.875 88.9336 124.532 88.5528 117.184 87.3277C106.137 85.486 89.8551 96.0191 89.8551 96.0191V69.945H73.2919V98.5024C73.2919 98.5024 61.2228 93.2817 53.0021 92.7081C44.3555 92.1047 33.698 94.9281 31.0559 96.0191C28.4137 97.1101 19.9142 99.393 21.118 104.297C21.8542 107.296 24.2572 108.103 26.9151 109.677C36.0303 115.076 42.4468 101.308 53.0021 102.227L53.3112 102.254C59.5619 102.798 63.8396 103.169 68.737 107.194C73.6023 111.192 76.333 114.976 76.6045 121.266C76.9527 129.328 72.2484 134.335 65.4244 138.648C60.3529 141.854 50.5176 142.373 50.5176 142.373C50.5176 142.373 51.1655 146.527 53.0021 148.167C55.896 150.753 59.2971 146.83 62.9399 148.167C67.1271 149.705 71.7774 151.607 71.2215 156.031C70.969 158.041 70.1097 159.094 68.737 160.584C64.5741 165.102 58.0118 164.141 53.0021 160.584C50.3654 158.712 49.7551 156.698 48.0331 153.962C45.3751 149.739 42.6501 142.373 42.6501 142.373C42.6501 142.373 35.5044 143.217 31.0559 142.373C26.9836 141.602 24.3879 141.194 21.118 138.648C17.1143 135.531 13.0771 132.345 14.4927 127.474C15.482 124.07 17.7968 122.509 21.118 121.266C27.024 119.055 30.395 124.633 36.0248 127.474C40.8773 129.922 42.6204 134.009 48.0331 134.51C52.9224 134.962 55.7028 133.083 60.0414 130.785C65.1091 128.1 71.3469 126.997 71.2215 121.266C71.0985 115.638 65.3854 113.937 60.0414 112.16C50.5232 108.995 42.1947 121.756 36.0248 121.266C29.855 120.775 25.9632 119.734 21.118 115.885C16.1664 111.952 12.7881 108.539 12.4223 102.227C12.1236 97.0712 13.9543 93.9994 16.9772 89.811C22.7411 81.8247 30.354 80.7719 40.1656 79.878C49.1982 79.0549 62.9399 84.4306 62.9399 84.4306V69.945H4.96893Z" fill="#F93A6D"/>
<path d="M288.613 69.945V62.4952H297.309V45.9402C297.309 38.4904 268.323 8.27753 268.323 8.27753L291.925 10.3469C291.925 10.3469 308.903 42.6292 308.903 45.9402V62.4952H392.547V69.945H308.903V92.7082C308.903 92.7082 318.186 78.7943 327.536 76.9809C331.188 76.2727 333.382 76.4257 337.06 76.9809C351.197 79.1151 359.742 88.456 363.561 102.227C365.548 109.392 365.228 114.019 363.561 121.266C361.068 132.102 348.24 145.27 348.24 145.27L337.06 136.579C337.06 136.579 354.706 120.201 353.209 107.194C351.964 96.3676 347.559 87.37 337.06 84.4306C323.824 80.7248 308.903 105.538 308.903 105.538L310.973 145.27L297.309 138.648V69.945H288.613Z" fill="#F93A6D"/>
<path d="M390.062 54.6315H385.093C385.093 54.6315 383.188 44.7324 378.468 41.3875C375.423 39.2291 369.358 38.4904 369.358 38.4904L363.561 23.177C363.561 23.177 375.453 25.0505 380.952 29.799C388.773 36.5508 390.062 54.6315 390.062 54.6315Z" fill="#F93A6D"/>
<path d="M385.093 79.878H373.913V136.579L385.093 145.27V79.878Z" fill="#F93A6D"/>
<path d="M112.817 107.755C122.925 106.835 136.833 110.237 136.833 117.688C136.833 125.138 123.084 132.984 114.887 135.485C106.69 137.985 95.8393 138.382 92.9408 135.485C90.0422 132.588 89.4203 130.501 88.8 126.793C86.824 114.992 100.895 108.839 112.817 107.755Z" fill="white"/>
<path d="M184.038 107.755C194.147 106.835 208.055 110.237 208.055 117.688C208.055 125.138 194.306 132.984 186.109 135.485C177.911 137.985 167.061 138.382 164.162 135.485C161.264 132.588 160.642 130.501 160.022 126.793C158.046 114.992 172.117 108.839 184.038 107.755Z" fill="white"/>
</svg>
